<svg width="20" height="20" viewBox="0 0 20 20" fill="none" xmlns="http://www.w3.org/2000/svg">
<path d="M19.8 6.06667C19.8 6.06667 19.6 4.66667 19 4.06667C18.2667 3.26667 17.4 3.26667 17 3.2C14.2 3 10 3 10 3C10 3 5.8 3 3 3.2C2.6 3.26667 1.73333 3.26667 1 4.06667C0.4 4.66667 0.2 6.06667 0.2 6.06667C0.2 6.06667 0 7.66667 0 9.26667V10.7333C0 12.3333 0.2 14 0.2 14C0.2 14 0.4 15.4 1 16C1.73333 16.8 2.73333 16.8 3.2 16.8667C4.8 16.9333 10 17 10 17C10 17 14.2 17 17 16.8C17.4 16.7333 18.2667 16.7333 19 15.9333C19.6 15.3333 19.8 13.9333 19.8 13.9333C19.8 13.9333 20 12.3333 20 10.7333V9.26667C20 7.66667 19.8 6.06667 19.8 6.06667ZM7.93333 12.6V7L13.3333 9.8L7.93333 12.6Z" fill="black"/>
</svg>
