<svg width="20" height="20" viewBox="0 0 20 20" fill="none" xmlns="http://www.w3.org/2000/svg">
<path fill-rule="evenodd" clip-rule="evenodd" d="M10 1C7.55615 1 7.24946 1.01038 6.28923 1.054C5.33108 1.09762 4.67685 1.24992 4.10431 1.47215C3.50388 1.69829 2.96001 2.05269 2.51062 2.51062C2.0526 2.96021 1.6982 3.50432 1.47215 4.105C1.24992 4.67685 1.09831 5.33108 1.054 6.28923C1.01038 7.24946 1 7.55615 1 10C1 12.4438 1.01038 12.7505 1.054 13.7108C1.09762 14.6689 1.24992 15.3232 1.47215 15.895C1.70269 16.4869 2.01008 16.9888 2.51062 17.4894C2.96001 17.9473 3.50388 18.3017 4.10431 18.5278C4.67685 18.7494 5.33108 18.9017 6.28923 18.946C7.24946 18.9896 7.55615 19 10 19C12.4438 19 12.7505 18.9896 13.7108 18.946C14.6689 18.9024 15.3232 18.7501 15.895 18.5278C16.4957 18.3018 17.0398 17.9474 17.4894 17.4894C17.9474 17.0398 18.3018 16.4957 18.5278 15.895C18.7494 15.3232 18.9017 14.6689 18.946 13.7108C18.9896 12.7505 19 12.4438 19 10C19 7.55615 18.9896 7.24946 18.946 6.28923C18.9024 5.33108 18.7501 4.67685 18.5272 4.105C18.3013 3.50439 17.9471 2.96028 17.4894 2.51062C17.0398 2.05258 16.4957 1.69818 15.895 1.47215C15.3232 1.25062 14.6689 1.09831 13.7108 1.054C12.7505 1.01038 12.4438 1 10 1ZM10 2.62138C12.403 2.62138 12.6875 2.63108 13.6367 2.674C14.5138 2.71415 14.9908 2.86092 15.3079 2.98415C15.7282 3.14754 16.0279 3.34208 16.3429 3.65708C16.6579 3.97208 16.8525 4.27185 17.0158 4.69208C17.1391 5.00915 17.2858 5.48546 17.326 6.36331C17.3689 7.31177 17.3786 7.597 17.3786 10C17.3786 12.403 17.3689 12.6875 17.326 13.6367C17.2858 14.5145 17.1391 14.9908 17.0158 15.3079C16.8717 15.6989 16.6417 16.0525 16.3429 16.3429C16.0525 16.6418 15.6989 16.8717 15.3079 17.0158C14.9908 17.1391 14.5138 17.2858 13.6367 17.326C12.6882 17.3689 12.403 17.3786 10 17.3786C7.597 17.3786 7.31177 17.3689 6.36331 17.326C5.48546 17.2858 5.00915 17.1391 4.69208 17.0158C4.30113 16.8717 3.94746 16.6418 3.65708 16.3429C3.3583 16.0525 3.12836 15.6988 2.98415 15.3079C2.86092 14.9908 2.71415 14.5145 2.674 13.6367C2.63108 12.6882 2.62138 12.403 2.62138 10C2.62138 7.597 2.63108 7.31246 2.674 6.36331C2.71415 5.48546 2.86092 5.00915 2.98415 4.69208C3.14754 4.27185 3.34208 3.97208 3.65708 3.65708C3.94747 3.35826 4.30114 3.12832 4.69208 2.98415C5.00915 2.86092 5.48546 2.71415 6.36331 2.674C7.31177 2.63108 7.597 2.62138 10 2.62138Z" fill="black"/>
<path fill-rule="evenodd" clip-rule="evenodd" d="M10 5.15385C8.71472 5.15385 7.48208 5.66442 6.57325 6.57325C5.66442 7.48208 5.15385 8.71472 5.15385 10C5.15385 11.2853 5.66442 12.5179 6.57325 13.4267C7.48208 14.3356 8.71472 14.8462 10 14.8462C11.2853 14.8462 12.5179 14.3356 13.4267 13.4267C14.3356 12.5179 14.8462 11.2853 14.8462 10C14.8462 8.71472 14.3356 7.48208 13.4267 6.57325C12.5179 5.66442 11.2853 5.15385 10 5.15385ZM10 13.1154C9.17375 13.1154 8.38134 12.7872 7.79709 12.2029C7.21284 11.6187 6.88462 10.8263 6.88462 10C6.88462 9.17375 7.21284 8.38134 7.79709 7.79709C8.38134 7.21284 9.17375 6.88462 10 6.88462C10.8263 6.88462 11.6187 7.21284 12.2029 7.79709C12.7872 8.38134 13.1154 9.17375 13.1154 10C13.1154 10.8263 12.7872 11.6187 12.2029 12.2029C11.6187 12.7872 10.8263 13.1154 10 13.1154ZM16.0231 5.22308C16.0231 5.36854 15.9944 5.51258 15.9388 5.64697C15.8831 5.78136 15.8015 5.90348 15.6986 6.00633C15.5958 6.10919 15.4737 6.19078 15.3393 6.24645C15.2049 6.30212 15.0608 6.33077 14.9154 6.33077C14.7699 6.33077 14.6259 6.30212 14.4915 6.24645C14.3571 6.19078 14.235 6.10919 14.1321 6.00633C14.0293 5.90348 13.9477 5.78136 13.892 5.64697C13.8363 5.51258 13.8077 5.36854 13.8077 5.22308C13.8077 4.9293 13.9244 4.64755 14.1321 4.43982C14.3399 4.23209 14.6216 4.11538 14.9154 4.11538C15.2092 4.11538 15.4909 4.23209 15.6986 4.43982C15.9064 4.64755 16.0231 4.9293 16.0231 5.22308Z" fill="black"/>
</svg>
