<svg width="20" height="20" viewBox="0 0 20 20" fill="none" xmlns="http://www.w3.org/2000/svg">
<path d="M20 4.80753C19.2466 5.14226 18.4932 5.3431 17.6027 5.47699C18.4247 4.94142 19.1096 4.20502 19.4521 3.26778C18.6301 3.7364 17.7397 4.07113 16.8493 4.27197C16.0959 3.46862 15 3 13.8356 3C11.5753 3 9.65753 4.80753 9.65753 7.08368C9.65753 7.41841 9.72603 7.68619 9.79452 8.02092C6.36986 7.88703 3.28767 6.21339 1.23288 3.80335C0.890411 4.27197 0.684932 4.94142 0.684932 5.67782C0.684932 7.08368 1.43836 8.35565 2.53425 9.0251C1.84931 9.0251 1.23288 8.82427 0.684932 8.48954V8.55648C0.684932 10.4979 2.12329 12.1715 4.0411 12.5063C3.69863 12.5732 3.35616 12.6402 2.94521 12.6402C2.67123 12.6402 2.39726 12.6402 2.19178 12.5732C2.73973 14.1799 4.24657 15.3849 6.09589 15.3849C4.65753 16.4561 2.87671 17.1255 0.958904 17.1255C0.616438 17.1255 0.273973 17.1255 0 17.0586C1.64384 18.3305 3.83562 19 6.16438 19C13.7671 19 17.9452 12.841 17.9452 7.48535V6.94979C18.7671 6.34728 19.4521 5.67782 20 4.80753Z" fill="black"/>
</svg>
