<svg width="20" height="20" viewBox="0 0 20 20" fill="none" xmlns="http://www.w3.org/2000/svg">
<path d="M16.7577 1H2.24231C1.52308 1 1 1.55385 1 2.31538V17.6846C1 18.3769 1.58846 19 2.24231 19H16.7577C17.4769 19 18 18.4462 18 17.6846V2.31538C18 1.55385 17.4115 1 16.7577 1ZM6.23077 16.2308H3.61538V7.92308H6.23077V16.2308ZM4.92308 6.81538C4.07308 6.81538 3.35385 6.05385 3.35385 5.15385C3.35385 4.25385 4.07308 3.49231 4.92308 3.49231C5.77308 3.49231 6.49231 4.25385 6.49231 5.15385C6.49231 6.05385 5.77308 6.81538 4.92308 6.81538ZM15.3846 16.2308H12.7692V12.0769C12.7692 10.9692 12.5077 9.86154 11.4615 9.86154C10.4154 9.86154 10.1538 10.9692 10.1538 12.0769V16.2308H7.53846V7.92308H10.1538V8.89231H10.2846C10.6115 8.2 11.4615 7.64615 12.4423 7.64615C14.8615 7.64615 15.3846 9.30769 15.3846 11.3846V16.2308Z" fill="black"/>
</svg>
